<?xml version="1.0" encoding="utf-8"?>
<!-- Generator: Adobe Illustrator 25.1.0, SVG Export Plug-In . SVG Version: 6.00 Build 0)  -->
<svg version="1.1" id="Layer_1" xmlns="http://www.w3.org/2000/svg" xmlns:xlink="http://www.w3.org/1999/xlink" x="0px" y="0px"
	 viewBox="0 0 303.06 207.88" style="enable-background:new 0 0 303.06 207.88;" xml:space="preserve">
<style type="text/css">
	.st0{fill:#BB6C5D;stroke:#3D3130;stroke-width:4.5;stroke-miterlimit:10;}
	.st1{fill:#204721;}
	.st2{fill:none;stroke:#F2B87A;stroke-miterlimit:10;}
	.st3{fill:none;}
	.st4{fill:#F2B87A;stroke:#204721;stroke-width:1.1232;stroke-miterlimit:10;}
	.st5{font-family:'BarricadaPro';}
	.st6{font-size:52.5973px;}
	.st7{font-size:63.1167px;}
	.st8{font-size:42.0778px;}
	.st9{font-size:47.3376px;}
	.st10{font-size:31.5584px;}
	.st11{fill:#F2B87A;stroke:#204721;stroke-width:0.5616;stroke-miterlimit:10;}
	.st12{font-size:21.0389px;}
</style>
<g>
	<g>
		<ellipse class="st0" cx="151.89" cy="103.39" rx="139.32" ry="92.78"/>
		<g>
			<g>
				<path class="st1" d="M41.22,62.41c4.77,4.85,8.6,10.89,10.6,16.52c-0.43,2.63-0.33,6.44,0.46,13.56
					c1.65-0.97,4.75-0.56,8.45,2.29c5.46,4.46,15.45,16.53,23.6,29.37c11.72,14.11-0.18,19.85-15.29,21.31
					c-7.21,0.85-16.81-0.55-21.32-3.28c-2.88,3.44-7.89,7.26-9.66,7.55c-0.88,0.15-2.5-0.26-2.58-1.14l-1-67.12
					c0.29-5.44-0.3-12-1.58-14.33C33.54,60.15,37.16,58.52,41.22,62.41z M59.28,129.92c0.94,3.47,3.81,6.57,6.15,6.53
					c2.92-0.03,1.99-6.94-1.48-17.35c-2.59-9.21-5.27-13.81-7.65-14.86c-1.09-0.47-1.84-0.13-2.3,0.45L59.28,129.92z"/>
			</g>
			<g>
				<path class="st2" d="M41.22,62.41c4.77,4.85,8.6,10.89,10.6,16.52c-0.43,2.63-0.33,6.44,0.46,13.56
					c1.65-0.97,4.75-0.56,8.45,2.29c5.46,4.46,15.45,16.53,23.6,29.37c11.72,14.11-0.18,19.85-15.29,21.31
					c-7.21,0.85-16.81-0.55-21.32-3.28c-2.88,3.44-7.89,7.26-9.66,7.55c-0.88,0.15-2.5-0.26-2.58-1.14l-1-67.12
					c0.29-5.44-0.3-12-1.58-14.33C33.54,60.15,37.16,58.52,41.22,62.41z M59.28,129.92c0.94,3.47,3.81,6.57,6.15,6.53
					c2.92-0.03,1.99-6.94-1.48-17.35c-2.59-9.21-5.27-13.81-7.65-14.86c-1.09-0.47-1.84-0.13-2.3,0.45L59.28,129.92z"/>
			</g>
		</g>
		<g>
			<path class="st1" d="M73.59,55.96c0-6.14-2.26-10.56-3.94-11.9c-0.07-0.24-0.15-0.6-0.15-0.95c0-6.92,5.18-11.2,10.36-11.13
				c4.09,0.06,6.86,3.21,8.54,10.33c1.53-7.02,5.84-12.7,10.29-12.7c4.6,0,7.23,4.73,7.23,12.48c0,8.9-2.33,14.6-4.6,15.83
				c-0.58-2.46-2.41-4.64-4.45-4.89c-2.19-0.27-4.09,3.79-4.09,8.48V90.6c0,4.83,0.95,12.03,0.95,14.32c0,1.48-0.66,2.83-1.17,2.88
				c-1.46,0.06-5.62-1.56-9.56-3.23c-4.45-1.88-8.32-4.12-9.34-5.39c-0.36-0.51-0.73-1.5-0.73-2.94c0-2.04,0.66-9,0.66-14.65V55.96z
				"/>
			<path class="st2" d="M73.59,55.96c0-6.14-2.26-10.56-3.94-11.9c-0.07-0.24-0.15-0.6-0.15-0.95c0-6.92,5.18-11.2,10.36-11.13
				c4.09,0.06,6.86,3.21,8.54,10.33c1.53-7.02,5.84-12.7,10.29-12.7c4.6,0,7.23,4.73,7.23,12.48c0,8.9-2.33,14.6-4.6,15.83
				c-0.58-2.46-2.41-4.64-4.45-4.89c-2.19-0.27-4.09,3.79-4.09,8.48V90.6c0,4.83,0.95,12.03,0.95,14.32c0,1.48-0.66,2.83-1.17,2.88
				c-1.46,0.06-5.62-1.56-9.56-3.23c-4.45-1.88-8.32-4.12-9.34-5.39c-0.36-0.51-0.73-1.5-0.73-2.94c0-2.04,0.66-9,0.66-14.65V55.96z
				"/>
		</g>
		<g>
			<path class="st1" d="M148.21,103.12c-19.2-4.31-37.44-20.18-37.44-43.37c0-22.02,14.36-35.68,26.43-35.68
				c15.58,0,29.52,14.63,37.1,41.84C182.66,95.9,167.3,107.4,148.21,103.12z M149.28,69.52c-4.23-23.81-8.44-30.17-11.38-30.35
				c-2.04-0.12-2.64,8.21-1.17,19.48c2.64,20.34,7.88,29.31,11.38,29.99C150.81,89.17,151,79.21,149.28,69.52z"/>
			<path class="st2" d="M148.21,103.12c-19.2-4.31-37.44-20.18-37.44-43.37c0-22.02,14.36-35.68,26.43-35.68
				c15.58,0,29.52,14.63,37.1,41.84C182.66,95.9,167.3,107.4,148.21,103.12z M149.28,69.52c-4.23-23.81-8.44-30.17-11.38-30.35
				c-2.04-0.12-2.64,8.21-1.17,19.48c2.64,20.34,7.88,29.31,11.38,29.99C150.81,89.17,151,79.21,149.28,69.52z"/>
		</g>
		<g>
			<path class="st1" d="M147.35,183.16c-21.57,0-42.71-15.27-43.98-45.36c-1.21-28.56,12.43-39.1,24.54-33.06
				c15.62,7.79,31.78,23.67,43.44,44.04C184.19,171.23,168.78,183.16,147.35,183.16z M145.24,149.79
				c-6.98-22.54-12.01-29.56-15.05-30.65c-2.11-0.76-1.93,7.38,0.66,19.11c4.67,21.17,11.16,29.95,15.03,30.19
				C148.87,168.63,148.08,158.96,145.24,149.79z"/>
			<path class="st2" d="M147.35,183.16c-21.57,0-42.71-15.27-43.98-45.36c-1.21-28.56,12.43-39.1,24.54-33.06
				c15.62,7.79,31.78,23.67,43.44,44.04C184.19,171.23,168.78,183.16,147.35,183.16z M145.24,149.79
				c-6.98-22.54-12.01-29.56-15.05-30.65c-2.11-0.76-1.93,7.38,0.66,19.11c4.67,21.17,11.16,29.95,15.03,30.19
				C148.87,168.63,148.08,158.96,145.24,149.79z"/>
		</g>
		<g>
			<path class="st1" d="M241.6,153.04c-5.96,1.09-13.6,1.92-17.53,0.48c-0.98-0.34-5.38-5.54-8.07-10.12
				c-3.45-6.3-9.24-17.84-13.18-31.61l1.84,10.46c2.85,15.72,6.17,27.59,6.86,31.04c0.29,1.48-0.58,2.42-1.75,3.06
				c-1.72,0.88-5.93,2.4-13.13,3.13c-7.24,0.6-12.47-0.03-14.12-0.93c-0.91-0.56-1.47-1.73-1.36-4.11
				c0.15-3.37,1.72-20.2,1.95-31.28l-0.07-64.92c-0.23-12.14-1.33-24.1-1.81-26.48c-0.09-7.63,1.83-11.12,4.35-7.04
				c1.33,2.01,5.36,11.12,7.48,17.86c0.76,8.8,2.24,23.35,5.27,42.6l2.82,16.95c1.27-7.57-0.02-19.23-0.63-30.37
				c-0.74-9.05,4.09-9.5,6.98-7.57c1.13,0.72,2.44,1.78,3.88,3.25c7.38,21.89,5.09,37,0.03,40.39
				c13.67,15.93,27.14,27.73,39.42,36.27C253.49,147.81,249.89,151.42,241.6,153.04z"/>
			<path class="st2" d="M241.6,153.04c-5.96,1.09-13.6,1.92-17.53,0.48c-0.98-0.34-5.38-5.54-8.07-10.12
				c-3.45-6.3-9.24-17.84-13.18-31.61l1.84,10.46c2.85,15.72,6.17,27.59,6.86,31.04c0.29,1.48-0.58,2.42-1.75,3.06
				c-1.72,0.88-5.93,2.4-13.13,3.13c-7.24,0.6-12.47-0.03-14.12-0.93c-0.91-0.56-1.47-1.73-1.36-4.11
				c0.15-3.37,1.72-20.2,1.95-31.28l-0.07-64.92c-0.23-12.14-1.33-24.1-1.81-26.48c-0.09-7.63,1.83-11.12,4.35-7.04
				c1.33,2.01,5.36,11.12,7.48,17.86c0.76,8.8,2.24,23.35,5.27,42.6l2.82,16.95c1.27-7.57-0.02-19.23-0.63-30.37
				c-0.74-9.05,4.09-9.5,6.98-7.57c1.13,0.72,2.44,1.78,3.88,3.25c7.38,21.89,5.09,37,0.03,40.39
				c13.67,15.93,27.14,27.73,39.42,36.27C253.49,147.81,249.89,151.42,241.6,153.04z"/>
		</g>
		<g>
			<path class="st1" d="M277.78,92.73c-0.25,3.55-6.31,5.92-13.25,5.97c-5.14-0.09-11.11-1.03-13.81-1.75
				c2.92,10.99,5.73,19.12,7.59,19.59c1.32,0.3,1.79-2.02,1.7-4.98c-0.09-1.85-0.4-3.49-0.82-5.12c1-1.28,2.81-1.68,4.38-1.59
				c4.54,0.21,8.61,5.47,9.05,11.78c-4.29,7.77-9.8,11.42-16.1,9.03c-6.86-4.01-14.68-16.03-25.47-32.12
				c-13.49-13.94-11.68-24.1,10.22-26.68C261.43,63.89,277.06,68.79,277.78,92.73z M248.54,91.19c2.98,0.02,5.36-0.48,6.99-1.3
				c-3.06-9.76-7.34-15.04-10.03-14.77C242.61,75.39,244.65,82.16,248.54,91.19z"/>
			<path class="st2" d="M277.78,92.73c-0.25,3.55-6.31,5.92-13.25,5.97c-5.14-0.09-11.11-1.03-13.81-1.75
				c2.92,10.99,5.73,19.12,7.59,19.59c1.32,0.3,1.79-2.02,1.7-4.98c-0.09-1.85-0.4-3.49-0.82-5.12c1-1.28,2.81-1.68,4.38-1.59
				c4.54,0.21,8.61,5.47,9.05,11.78c-4.29,7.77-9.8,11.42-16.1,9.03c-6.86-4.01-14.68-16.03-25.47-32.12
				c-13.49-13.94-11.68-24.1,10.22-26.68C261.43,63.89,277.06,68.79,277.78,92.73z M248.54,91.19c2.98,0.02,5.36-0.48,6.99-1.3
				c-3.06-9.76-7.34-15.04-10.03-14.77C242.61,75.39,244.65,82.16,248.54,91.19z"/>
		</g>
	</g>
	<rect x="23.9" y="45.8" class="st3" width="69.15" height="65.33"/>
	<text transform="matrix(0.9081 0 0 1 48.0373 84.1968)" class="st4 st5 st6">*</text>
	<rect x="46.04" y="143.92" class="st3" width="85.92" height="78.11"/>
	<text transform="matrix(0.9081 0 0 1 76.4699 189.9936)" class="st4 st5 st7">*</text>
	<rect x="186.55" y="33.75" class="st3" width="69.15" height="65.33"/>
	<text transform="matrix(0.9081 0 0 1 208.5978 79.8218)" class="st4 st5 st7">*</text>
	<rect x="133.71" y="106.14" class="st3" width="69.15" height="65.33"/>
	<text transform="matrix(0.9081 0 0 1 159.9401 136.8598)" class="st4 st5 st8">*</text>
	<g>
		<rect x="157.25" y="162.18" class="st3" width="69.15" height="65.33"/>
		<text transform="matrix(0.9081 0 0 1 182.4279 196.7348)" class="st4 st5 st9">*</text>
	</g>
	<rect x="136.47" y="17.05" class="st3" width="69.15" height="65.33"/>
	<text transform="matrix(0.9081 0 0 1 162.6974 47.7719)" class="st4 st5 st8">*</text>
	<rect x="71.88" y="77.37" class="st3" width="69.15" height="65.33"/>
	<text transform="matrix(0.9081 0 0 1 98.1047 108.0854)" class="st4 st5 st8">*</text>
	<rect x="194" y="103.67" class="st3" width="69.15" height="65.33"/>
	<text transform="matrix(0.9081 0 0 1 222.3127 126.7094)" class="st4 st5 st10">*</text>
	<rect x="197" y="159.48" class="st3" width="69.15" height="65.33"/>
	<text transform="matrix(0.9081 0 0 1 227.3976 174.8344)" class="st11 st5 st12">*</text>
</g>
</svg>
